# xmcd CD database file
#
# Track frame offsets:
#	150
#	12362
#	23882
#	33930
#	44345
#	55032
#	67132
#	77725
#	91262
#	102155
#	113715
#	127097
#	142240
#	154132
#	165592
#	175652
#	186925
#	196307
#	206787
#	219882
#	232997
#	245435
#	257737
#
# Disc length: 3642 seconds
#
# Revision: 1
# Processed by: cddbd v1.5.1PL0 Copyright (c) Steve Scherf et al.
# Submitted via: CDex 1.51
#
DISCID=3f0e3817
DTITLE=Various Artist - Oldies Best Collection [Disc 1]
DYEAR=1900
DGENRE=Oldies
TTITLE0=The Mamas and The Papas - California Dreamin'
TTITLE1=Paul and Paula - Hey, Paula
TTITLE2=Bill Haley and His Comets - Rock Around The Clock
TTITLE3=Gene Pitney - Louisiana Mama
TTITLE4=Del Shannon - Runaway
TTITLE5=The Platters - Only You
TTITLE6=Ricky Nelson - Hello, Mary Lou
TTITLE7=Scott McKenzie - San Francisco
TTITLE8=Paul Anka - Diana
TTITLE9=Johnny Tillotson - Poetry In Motion
TTITLE10=Patti Page - Tennessee Waltz
TTITLE11=The Brothers Four - Green Fields
TTITLE12=The Drifters - Save The Last Dance For Me
TTITLE13=The Platters - Smoke Gets In Your Eyes
TTITLE14=Johnny and The Hurricanes - Red River Rock
TTITLE15=The Cascades - Rhythm Of The Rain
TTITLE16=Eddie Hodges - I'm Gonna Knock On Your Door
TTITLE17=Pat Boone - Love Letters In The Sand
TTITLE18=Percy Sledge - When A Man Loves A Woman
TTITLE19=Dionne Warwick - Walk On By
TTITLE20=Chuck Berry - Johnny Be Goode
TTITLE21=The Drifters - Under The Boardwalk
TTITLE22=Marlene Dietrich - Lili Marlene
EXTD=
EXTT0=
EXTT1=
EXTT2=
EXTT3=
EXTT4=
EXTT5=
EXTT6=
EXTT7=
EXTT8=
EXTT9=
EXTT10=
EXTT11=
EXTT12=
EXTT13=
EXTT14=
EXTT15=
EXTT16=
EXTT17=
EXTT18=
EXTT19=
EXTT20=
EXTT21=
EXTT22=
PLAYORDER=
